<svg xmlns="http://www.w3.org/2000/svg" viewBox="0 0 138.73 244.04"><defs><style>.cls-1{fill:#fdcb05;}</style></defs><g id="Layer_2" data-name="Layer 2"><g id="Layer_1-2" data-name="Layer 1"><path class="cls-1" d="M57.43,162.31,15.19,140.84A27.77,27.77,0,0,1,4.74,100.58L64.17,12.27A27.78,27.78,0,0,1,99.8,3h0a27.76,27.76,0,0,1,13.4,34.55L67.7,158.33A7.39,7.39,0,0,1,57.43,162.31Z"/><path class="cls-1" d="M87.53,84.89l36,18.3A27.78,27.78,0,0,1,134,143.46L74.55,231.77A27.76,27.76,0,0,1,38.93,241h0a27.78,27.78,0,0,1-13.41-34.55l43-114.22A13.66,13.66,0,0,1,87.53,84.89Z"/></g></g></svg>